<?xml version="1.0" encoding="UTF-8"?>
<svg width="31px" height="31px" viewBox="0 0 31 31" version="1.1" xmlns="http://www.w3.org/2000/svg" xmlns:xlink="http://www.w3.org/1999/xlink">
    <!-- Generator: Sketch 48.2 (47327) - http://www.bohemiancoding.com/sketch -->
    <title>times</title>
    <desc>Created with Sketch.</desc>
    <defs></defs>
    <g id="menu" stroke="none" stroke-width="1" fill="none" fill-rule="evenodd" transform="translate(-312.000000, -36.000000)">
        <path d="M329.585891,51.7500411 L341.894455,64.0586055 C342.074142,64.2981888 342.163986,64.5677194 342.163986,64.8671974 C342.163986,65.1666753 342.074142,65.4062586 341.894455,65.5859456 L341.085863,66.3945375 C340.906176,66.5742245 340.666593,66.6640681 340.367115,66.6640681 C340.067637,66.6640681 339.798106,66.5742245 339.558523,66.3945375 L327.249959,53.9961295 L314.941394,66.3945375 C314.701811,66.5742245 314.432281,66.6640681 314.132803,66.6640681 C313.833325,66.6640681 313.593741,66.5742245 313.414054,66.3945375 L312.605463,65.5859456 C312.425775,65.4062586 312.335932,65.1666753 312.335932,64.8671974 C312.335932,64.5677194 312.425775,64.2981888 312.605463,64.0586055 L325.00387,51.7500411 L312.605463,39.4414767 C312.425775,39.2018935 312.335932,38.9323629 312.335932,38.6328849 C312.335932,38.3334069 312.425775,38.0938237 312.605463,37.9141366 L313.414054,37.1055448 C313.593741,36.9258577 313.833325,36.8360142 314.132803,36.8360142 C314.432281,36.8360142 314.701811,36.9258577 314.941394,37.1055448 L327.249959,49.4141092 L339.558523,37.1055448 C339.798106,36.9258577 340.067637,36.8360142 340.367115,36.8360142 C340.666593,36.8360142 340.906176,36.9258577 341.085863,37.1055448 L341.894455,37.9141366 C342.074142,38.0938237 342.163986,38.3334069 342.163986,38.6328849 C342.163986,38.9323629 342.074142,39.2018935 341.894455,39.4414767 L329.585891,51.7500411 Z" id="times" fill="#FFFFFF"></path>
    </g>
</svg>