<svg xmlns="http://www.w3.org/2000/svg" width="18" height="18" viewBox="0 0 18 18">
  <path fill="#FFF" fill-rule="evenodd" d="M38.8359236,14.2070355 C38.8359236,14.3007855 38.7714708,14.3535197 38.6425647,14.3652383 C38.5136586,14.3769568 38.4492058,14.3359416 38.4492058,14.2421917 C38.4492058,14.1484417 38.5077995,14.101567 38.6249866,14.101567 C38.6952989,14.101567 38.7480332,14.1132856 38.7831893,14.1367232 C38.8183455,14.1601608 38.8359236,14.1835979 38.8359236,14.2070355 Z M37.7460824,14.0664109 C37.7695201,13.9726609 37.8398324,13.9433643 37.9570194,13.9785204 C38.0742065,14.0136766 38.1269407,14.0605513 38.1152222,14.1191451 C38.1035036,14.1777389 38.0742065,14.2187541 38.0273318,14.2421917 C37.9804571,14.2656293 37.9335818,14.2656293 37.8867071,14.2421917 C37.8398324,14.2187541 37.7988167,14.1894574 37.7636605,14.1543013 C37.7285044,14.1191451 37.7226448,14.0898485 37.7460824,14.0664109 Z M39.2929537,13.9960985 C39.4101408,13.9960985 39.4745941,14.0312547 39.4863127,14.101567 C39.4980312,14.1718794 39.445297,14.2304731 39.3281099,14.2773479 C39.2812352,14.2773479 39.2402195,14.2714883 39.2050633,14.2597698 C39.1699072,14.2480512 39.1464695,14.2070355 39.134751,14.1367232 C39.1230325,14.0664109 39.1757667,14.0195362 39.2929537,13.9960985 Z M41.6132607,0.53128688 C43.2070067,0.53128688 44.6835657,0.906286165 46.0429377,1.6562842 C47.4023096,2.40628223 48.4687131,3.42581105 49.2421488,4.71487066 C50.0390221,6.05080497 50.4374584,7.51564541 50.4374584,9.10939143 C50.4374584,11.0546991 49.8925378,12.7949293 48.8026967,14.3300821 C47.7128555,15.8652349 46.2890308,16.9257789 44.5312225,17.5117151 C44.3437231,17.5585899 44.1972389,17.5351528 44.0917704,17.4414028 C43.9863019,17.3476529 43.9335677,17.2304658 43.9335677,17.0898412 L43.9335677,14.1367232 C43.9335677,13.3867252 43.7343492,12.8476636 43.3359129,12.5195395 C44.2030985,12.4257896 44.847628,12.3086026 45.269502,12.1679779 C45.9257506,11.9336033 46.4296555,11.5820416 46.7812171,11.1132929 C47.1796535,10.5039195 47.378872,9.67189009 47.378872,8.6172051 C47.378872,8.17189348 47.2968411,7.78517566 47.1327788,7.45705162 C47.0155918,7.222677 46.7929357,6.92970913 46.4648116,6.57814746 C46.5585616,6.34377284 46.6171549,6.06252351 46.6405925,5.73439948 C46.6640301,5.21877553 46.5819987,4.70315211 46.3944993,4.18752816 C46.1601247,4.11721583 45.8320007,4.16409054 45.4101267,4.32815283 C45.1288773,4.44533987 44.8007533,4.60940216 44.425754,4.82033915 L43.9687238,5.13674465 C43.2421629,4.92580765 42.4980244,4.82033915 41.7363073,4.82033915 C40.9745902,4.82033915 40.2421702,4.92580765 39.5390469,5.13674465 L39.0820167,4.82033915 C38.7070175,4.60940216 38.3671749,4.44533987 38.0624879,4.32815283 C37.6406139,4.16409054 37.3242084,4.11721583 37.1132714,4.18752816 C36.9023344,4.70315211 36.8203036,5.21877553 36.8671783,5.73439948 C36.8671783,6.06252351 36.914053,6.3320543 37.0078029,6.5429913 C36.7265536,6.89455296 36.5214762,7.21681799 36.39257,7.50978587 C36.2636639,7.80275374 36.1992111,8.17189348 36.1992111,8.6172051 C36.1992111,9.67189009 36.3867105,10.4922005 36.7617098,11.0781367 C37.0898338,11.5703231 37.5820201,11.9336033 38.2382688,12.1679779 C38.6601428,12.3086026 39.2929537,12.4257896 40.1367017,12.5195395 C39.8320148,12.8007889 39.6445154,13.1992252 39.5742031,13.7148492 C39.1757667,13.9023486 38.7890489,13.9726609 38.4140496,13.9257862 C37.8046762,13.8789115 37.335927,13.562506 37.0078029,12.9765697 C36.8671783,12.718758 36.6796789,12.507821 36.4453043,12.3437587 C36.281242,12.2500088 36.1054612,12.1679779 35.9179618,12.0976656 L35.6718686,12.0625094 C35.4140569,12.0625094 35.2792913,12.1035251 35.2675727,12.185556 C35.2558542,12.2675868 35.3085884,12.3554773 35.4257755,12.4492272 L35.6015563,12.5898519 C35.7656186,12.6836018 35.9296803,12.835945 36.0937426,13.046882 C36.2343673,13.2109443 36.3515543,13.3984437 36.4453043,13.6093807 L36.585929,13.89063 C36.703116,14.2421917 36.9257721,14.5117225 37.2538961,14.6992219 C37.5351454,14.8632841 37.8749886,14.9687526 38.2734249,15.0156273 C38.5546743,15.039065 38.8476421,15.0273459 39.1523291,14.9804712 L39.5390469,14.945315 L39.5742031,17.0898412 C39.5742031,17.2304658 39.5214688,17.3476529 39.4160003,17.4414028 C39.3105318,17.5351528 39.1640476,17.5585899 38.9765483,17.5117151 C37.1953023,16.9257789 35.7538995,15.8652349 34.6523398,14.3300821 C33.5507801,12.7949293 33,11.0546991 33,9.10939143 C33,7.51564541 33.3749993,6.06252351 34.1249973,4.75002682 C34.8749954,3.43753013 35.9062432,2.40628223 37.2187399,1.6562842 C38.5312366,0.906286165 39.9960771,0.53128688 41.6132607,0.53128688 Z M36.4101481,12.6601642 C36.4570228,12.6132895 36.5156166,12.625008 36.585929,12.6953204 C36.6562413,12.7656327 36.6679598,12.8242265 36.6210851,12.8711012 C36.5742104,12.9179759 36.5156166,12.9062574 36.4453043,12.835945 C36.374992,12.7656327 36.3632734,12.7070389 36.4101481,12.6601642 Z M36.0234303,12.3789149 C36.070305,12.3320402 36.1288988,12.3261806 36.1992111,12.3613368 C36.2695235,12.396493 36.2929611,12.4433677 36.2695235,12.5019615 C36.2460858,12.5605553 36.1933516,12.5664143 36.1113207,12.5195395 C36.0292898,12.4726648 35.9999927,12.4257896 36.0234303,12.3789149 Z M37.1835838,13.6093807 C37.2070214,13.5859431 37.2421776,13.5800841 37.2890523,13.5918026 C37.335927,13.6035212 37.3769427,13.6269588 37.4120989,13.6621149 C37.447255,13.6972711 37.4706926,13.7382868 37.4824112,13.7851615 C37.4941297,13.8320362 37.4882707,13.8671924 37.4648331,13.89063 C37.3945208,13.9609424 37.3124899,13.9492238 37.2187399,13.8554739 C37.1718652,13.8085992 37.1484276,13.7617239 37.1484276,13.7148492 C37.1484276,13.6679745 37.1601462,13.6328183 37.1835838,13.6093807 Z M36.7617098,13.1171944 C36.8085845,13.0937568 36.8496002,13.0878977 36.8847564,13.0996163 C36.9199125,13.1113348 36.9492092,13.140632 36.9726468,13.1875067 C37.0429591,13.2812567 37.0429591,13.351569 36.9726468,13.3984437 C36.9492092,13.4218813 36.9199125,13.4218813 36.8847564,13.3984437 C36.8496002,13.3750061 36.8085845,13.351569 36.7617098,13.3281314 C36.7148351,13.2109443 36.7148351,13.140632 36.7617098,13.1171944 Z" transform="translate(-33)"/>
</svg>
