<svg xmlns="http://www.w3.org/2000/svg" width="18" height="14" viewBox="0 0 18 14">
  <path fill="#FFF" fill-rule="evenodd" d="M2.53124397,5.24221315 C2.53124397,5.03127615 2.44921309,4.84377678 2.2851508,4.67971449 L0.703123324,2.78128152 L0.703123324,2.50003219 L5.66014276,2.50003219 L9.4570087,10.8671997 L12.7968445,2.50003219 L17.5077708,2.50003219 L17.5077708,2.78128152 L16.1366803,4.08205966 C16.0194932,4.17580962 15.972618,4.3047152 15.9960556,4.46877749 L15.9960556,14.0312547 C15.972618,14.195317 16.0194932,14.3242226 16.1366803,14.4179725 L17.4726146,15.7187507 L17.4726146,16 L10.792943,16 L10.792943,15.7187507 L12.1640335,14.3828164 C12.2343458,14.312504 12.2753615,14.2597698 12.2870801,14.2246136 C12.2987986,14.1894574 12.3046582,14.1132856 12.3046582,13.9960985 L12.3046582,6.26174197 L8.50779222,15.9648438 L7.98044972,15.9648438 L3.51561662,6.26174197 L3.51561662,12.7656327 C3.492179,13.046882 3.57421041,13.2929752 3.76170978,13.5039122 L5.55467426,15.6835945 L5.55467426,15.9648438 L0.492186327,15.9648438 L0.492186327,15.6835945 L2.2851508,13.5039122 C2.4960878,13.2929752 2.57811867,13.046882 2.53124397,12.7656327 L2.53124397,5.24221315 Z" transform="translate(0 -2)"/>
</svg>
