<svg xmlns="http://www.w3.org/2000/svg" width="18" height="16" viewBox="0 0 18 16">
  <path fill="#FFF" fill-rule="evenodd" d="M54.1366803,5.59377481 C54.1601179,5.68752477 54.1718364,5.83986797 54.1718364,6.05080497 C54.1718364,7.73830095 53.761681,9.36720314 52.9413706,10.9375121 C52.0976226,12.6015704 50.9140315,13.9257862 49.3905978,14.9101588 C47.7265395,16.0117185 45.8163874,16.5624987 43.6601428,16.5624987 C41.5976475,16.5624987 39.7109336,16.0117185 38,14.9101588 C38.2578117,14.9335965 38.5507801,14.945315 38.8789042,14.945315 C40.5898378,14.945315 42.12499,14.4179725 43.4843619,13.3632875 C42.6640516,13.3632875 41.9433502,13.1230539 41.3222577,12.6425861 C40.7011653,12.1621183 40.2734323,11.5586045 40.0390576,10.8320436 C40.2734323,10.8554812 40.4960878,10.8671997 40.7070248,10.8671997 C41.0351488,10.8671997 41.3632734,10.8320436 41.6913974,10.7617312 C40.8476495,10.5742319 40.1445261,10.1406388 39.5820275,9.46095309 C39.0195288,8.78126739 38.7382795,8.00783173 38.7382795,7.14064612 L38.7382795,7.07033379 C39.2539034,7.37502074 39.804683,7.53908249 40.3906193,7.56252012 C39.898433,7.21095845 39.4999966,6.76564684 39.1953097,6.2265858 C38.8906227,5.68752477 38.7382795,5.09572894 38.7382795,4.45119941 C38.7382795,3.80666988 38.9140603,3.19143697 39.265622,2.60550069 C40.1796823,3.75393563 41.2988201,4.66799595 42.6230359,5.34768165 C43.9472516,6.02736735 45.3593573,6.40236663 46.8593539,6.47267896 C46.8124792,6.19142964 46.7890415,5.91018031 46.7890415,5.62893098 C46.7890415,4.97268236 46.9531038,4.35744945 47.2812279,3.78323225 C47.6093519,3.20901505 48.0546635,2.75784389 48.6171622,2.42971985 C49.1796608,2.10159582 49.7890342,1.93753353 50.4452828,1.93753353 C50.9843439,1.93753353 51.4823897,2.04300203 51.9394199,2.25393902 C52.3964501,2.46487602 52.800746,2.74612535 53.1523076,3.09768701 C53.9960556,2.93362472 54.7812098,2.64065685 55.5077708,2.21878286 C55.2265214,3.08596847 54.6874604,3.76565417 53.8905871,4.2578405 C54.5937104,4.16409054 55.2968338,3.96487262 55.9999571,3.66018567 C55.4843331,4.4101837 54.8632412,5.05471377 54.1366803,5.59377481 Z" transform="translate(-38 -1)"/>
</svg>
