<svg xmlns="http://www.w3.org/2000/svg" width="18" height="14" viewBox="0 0 18 14">
  <path fill="#E73536" fill-rule="evenodd" d="M9.96091375,7.01565238 C9.77862232,6.83336095 9.6874769,6.61851771 9.6874769,6.37112267 C9.6874769,6.12372762 9.77862232,5.89586319 9.96091375,5.68753055 L10.6249747,5.06253204 C10.8072661,4.8541994 11.0221093,4.75003278 11.2695044,4.75003278 C11.5168994,4.75003278 11.7317427,4.8541994 11.9140341,5.06253204 L17.2265214,10.335957 C17.4088129,10.5182484 17.4999583,10.7396016 17.4999583,11.0000179 C17.4999583,11.2604341 17.4088129,11.4817874 17.2265214,11.6640788 L11.9140341,16.9375037 C11.7317427,17.1458364 11.5168994,17.250003 11.2695044,17.250003 C11.0221093,17.250003 10.8072661,17.1458364 10.6249747,16.9375037 L9.96091375,16.3125052 C9.77862232,16.1041726 9.6874769,15.8763081 9.6874769,15.6289131 C9.6874769,15.3815181 9.77862232,15.1666748 9.96091375,14.9843834 L12.4999702,12.4062645 L0.937497765,12.4062645 C0.67708152,12.4062645 0.455728279,12.3151191 0.273436848,12.1328277 C0.0911454173,11.9505362 0,11.729183 0,11.4687668 L0,10.531269 C0,10.2708528 0.0911454173,10.0494995 0.273436848,9.86720808 C0.455728279,9.68491665 0.67708152,9.59377123 0.937497765,9.59377123 L12.4999702,9.59377123 L9.96091375,7.01565238 Z" transform="translate(0 -4)"/>
</svg>
