<?xml version="1.0" encoding="UTF-8"?>
<svg width="35px" height="28px" viewBox="0 0 35 28" version="1.1" xmlns="http://www.w3.org/2000/svg" xmlns:xlink="http://www.w3.org/1999/xlink">
    <!-- Generator: Sketch 48.2 (47327) - http://www.bohemiancoding.com/sketch -->
    <title>menu-icon</title>
    <desc>Created with Sketch.</desc>
    <defs></defs>
    <g id="home" stroke="none" stroke-width="1" fill="none" fill-rule="evenodd" transform="translate(-310.000000, -38.000000)">
        <path d="M344.531168,40.8124933 L310.468749,40.8124933 C310.364583,40.8124933 310.260416,40.7604097 310.15625,40.6562437 C310.052084,40.5520776 310,40.4479104 310,40.3437444 L310,38.4687489 C310,38.3645829 310.052084,38.2604156 310.15625,38.1562496 C310.260416,38.0520836 310.364583,38 310.468749,38 L344.531168,38 C344.635334,38 344.739501,38.0520836 344.843667,38.1562496 C344.947833,38.2604156 344.999917,38.3645829 344.999917,38.4687489 L344.999917,40.3437444 C344.999917,40.4479104 344.947833,40.5520776 344.843667,40.6562437 C344.739501,40.7604097 344.635334,40.8124933 344.531168,40.8124933 Z M344.531168,53.3124635 L310.468749,53.3124635 C310.364583,53.3124635 310.260416,53.2603799 310.15625,53.1562139 C310.052084,53.0520478 310,52.9478806 310,52.8437146 L310,50.9687191 C310,50.8645531 310.052084,50.7603858 310.15625,50.6562198 C310.260416,50.5520538 310.364583,50.4999702 310.468749,50.4999702 L344.531168,50.4999702 C344.635334,50.4999702 344.739501,50.5520538 344.843667,50.6562198 C344.947833,50.7603858 344.999917,50.8645531 344.999917,50.9687191 L344.999917,52.8437146 C344.999917,52.9478806 344.947833,53.0520478 344.843667,53.1562139 C344.739501,53.2603799 344.635334,53.3124635 344.531168,53.3124635 Z M344.531168,65.8124337 L310.468749,65.8124337 C310.364583,65.8124337 310.260416,65.7603501 310.15625,65.6561841 C310.052084,65.552018 310,65.4478508 310,65.3436848 L310,63.4686893 C310,63.3645233 310.052084,63.260356 310.15625,63.15619 C310.260416,63.052024 310.364583,62.9999404 310.468749,62.9999404 L344.531168,62.9999404 C344.635334,62.9999404 344.739501,63.052024 344.843667,63.15619 C344.947833,63.260356 344.999917,63.3645233 344.999917,63.4686893 L344.999917,65.3436848 C344.999917,65.4478508 344.947833,65.552018 344.843667,65.6561841 C344.739501,65.7603501 344.635334,65.8124337 344.531168,65.8124337 Z" id="menu-icon" fill="#FFFFFF"></path>
    </g>
</svg>