<svg xmlns="http://www.w3.org/2000/svg" xmlns:xlink="http://www.w3.org/1999/xlink" width="525" height="666" viewBox="0 0 525 666">
  <defs>
    <polygon id="newsletter-illustration-a" points=".143 .274 26.359 .274 26.359 9.998 .143 9.998"/>
  </defs>
  <g fill="none" fill-rule="evenodd" transform="translate(1 2)">
    <path fill="#FFA7A8" fill-opacity=".1" d="M492,64 L508.616689,64 C513.965801,64 515.905519,64.5569537 517.861074,65.6027962 C519.81663,66.6486388 521.351361,68.1833702 522.397204,70.1389258 C523.443046,72.0944813 524,74.0341988 524,79.3833112 L524,648.616689 C524,653.965801 523.443046,655.905519 522.397204,657.861074 C521.351361,659.81663 519.81663,661.351361 517.861074,662.397204 C515.905519,663.443046 513.965801,664 508.616689,664 L79.3833112,664 C74.0341988,664 72.0944813,663.443046 70.1389258,662.397204 C68.1833702,661.351361 66.6486388,659.81663 65.6027962,657.861074 C64.5569537,655.905519 64,653.965801 64,648.616689 L64,632 L476.616689,632 C481.965801,632 483.905519,631.443046 485.861074,630.397204 C487.81663,629.351361 489.351361,627.81663 490.397204,625.861074 C491.443046,623.905519 492,621.965801 492,616.616689 L492,64 Z"/>
    <path fill="#FFA7A8" fill-opacity=".25" d="M460,32 L476.616689,32 C481.965801,32 483.905519,32.5569537 485.861074,33.6027962 C487.81663,34.6486388 489.351361,36.1833702 490.397204,38.1389258 C491.443046,40.0944813 492,42.0341988 492,47.3833112 L492,616.616689 C492,621.965801 491.443046,623.905519 490.397204,625.861074 C489.351361,627.81663 487.81663,629.351361 485.861074,630.397204 C483.905519,631.443046 481.965801,632 476.616689,632 L47.3833112,632 C42.0341988,632 40.0944813,631.443046 38.1389258,630.397204 C36.1833702,629.351361 34.6486388,627.81663 33.6027962,625.861074 C32.5569537,623.905519 32,621.965801 32,616.616689 L32,600 L444.616689,600 C449.965801,600 451.905519,599.443046 453.861074,598.397204 C455.81663,597.351361 457.351361,595.81663 458.397204,593.861074 C459.443046,591.905519 460,589.965801 460,584.616689 L460,32 Z"/>
    <path fill="none" stroke="#E73536" stroke-linecap="round" stroke-linejoin="round" stroke-width="3" d="M1,69.7939453 L1,15.3833112 C1,10.0341988 1.55695367,8.09448133 2.60279622,6.13892578 C3.64863878,4.18337022 5.18337022,2.64863878 7.13892578,1.60279622 C9.09448133,0.556953667 11.0341988,0 16.3833112,0 L445.616689,0 C450.965801,-2.84217094e-14 452.905519,0.556953667 454.861074,1.60279622 C456.81663,2.64863878 458.351361,4.18337022 459.397204,6.13892578 C460.443046,8.09448133 461,10.0341988 461,15.3833112 L461,330.226562 M461,562.292969 L461,584.616689 C461,589.965801 460.443046,591.905519 459.397204,593.861074 C458.351361,595.81663 456.81663,597.351361 454.861074,598.397204 C452.905519,599.443046 450.965801,600 445.616689,600 C417.882911,600 399.05951,600 389.146484,600 C382.601057,600 376.82176,600 371.808594,600 C366.202229,600 360.396891,600 354.392578,600 C349.538334,600 344.166589,600 338.277344,600 C299.829685,600 192.531674,600 16.3833112,600 C11.0341988,600 9.09448133,599.443046 7.13892578,598.397204 C5.18337022,597.351361 3.64863878,595.81663 2.60279622,593.861074 C1.55695367,591.905519 1,589.965801 1,584.616689 C1,567.773205 1,295.412339 1,148.480469 C1,139.850127 1,102.199394 1,94.5117188 M1,85.6850586 L1,79.1230469"/>
    <path stroke="#E73536" stroke-linecap="round" stroke-linejoin="round" stroke-width="3" d="M21.5 21C19.0147186 21 17 18.9852814 17 16.5 17 14.0147186 19.0147186 12 21.5 12 23.9852814 12 26 14.0147186 26 16.5 26 18.9852814 23.9852814 21 21.5 21zM43.5 21C41.0147186 21 39 18.9852814 39 16.5 39 14.0147186 41.0147186 12 43.5 12 45.9852814 12 48 14.0147186 48 16.5 48 18.9852814 45.9852814 21 43.5 21zM65.5 21C63.0147186 21 61 18.9852814 61 16.5 61 14.0147186 63.0147186 12 65.5 12 67.9852814 12 70 14.0147186 70 16.5 70 18.9852814 67.9852814 21 65.5 21zM1.04202318 33.5L460.806964 33.5"/>
    <g transform="translate(141 91)">
      <path fill="#D43538" d="M123.573959,4.93020528 C123.60088,4.93020528 123.702229,4.93706745 123.702229,4.93812317 L123.702229,0.389560117 L119.627155,0.389560117 C119.63085,0.389560117 119.64088,0.409090909 119.64088,0.455542522 C119.64088,1.44580645 118.838006,2.2143695 117.847742,2.2143695 C116.85695,2.2143695 116.054076,1.46322581 116.054076,0.472434018 C116.054076,0.426510264 116.064106,0.389560117 116.067801,0.389560117 L111.645396,0.389560117 C111.649619,0.389560117 111.661232,0.423870968 111.661232,0.47771261 C111.661232,1.46797654 110.85783,2.23653959 109.867566,2.23653959 C108.877302,2.23653959 108.0739,1.48539589 108.0739,0.495131965 C108.0739,0.441290323 108.085513,0.389560117 108.089736,0.389560117 L103.663109,0.389560117 C103.668915,0.389560117 103.681056,0.438651026 103.681056,0.499882698 C103.681056,1.49014663 102.878182,2.25870968 101.88739,2.25870968 C100.897126,2.25870968 100.094252,1.50756598 100.094252,0.517302053 C100.094252,0.455542522 100.106393,0.389560117 100.112199,0.389560117 L95.6808211,0.389560117 C95.6882111,0.389560117 95.7008798,0.452903226 95.7008798,0.522052786 C95.7008798,1.51284457 94.8980059,2.28087977 93.9077419,2.28087977 C92.917478,2.28087977 92.1140762,1.52973607 92.1140762,0.539472141 C92.1140762,0.470322581 92.1267449,0.389560117 92.1346628,0.389560117 L87.6985337,0.389560117 C87.7080352,0.389560117 87.7212317,0.467683284 87.7212317,0.544222874 C87.7212317,1.53501466 86.9183578,2.30304985 85.927566,2.30304985 C84.9373021,2.30304985 84.1344282,1.55190616 84.1344282,0.561642229 C84.1344282,0.485102639 84.1476246,0.389560117 84.1571261,0.389560117 L79.7162463,0.389560117 C79.7278592,0.389560117 79.7410557,0.482463343 79.7410557,0.566920821 C79.7410557,1.55718475 78.9381818,2.3257478 77.9479179,2.3257478 C76.9571261,2.3257478 76.1542522,1.57460411 76.1542522,0.583812317 C76.1542522,0.499354839 76.1679765,0.389560117 76.1790616,0.389560117 L71.7344868,0.389560117 C71.7476833,0.389560117 71.7614076,0.496715543 71.7614076,0.589090909 C71.7614076,1.57935484 70.9585337,2.34791789 69.9677419,2.34791789 C68.977478,2.34791789 68.1746041,1.59677419 68.1746041,0.605982405 C68.1746041,0.514134897 68.1883284,0.389560117 68.2015249,0.389560117 L63.7521994,0.389560117 C63.7675073,0.389560117 63.7812317,0.511495601 63.7812317,0.611260997 C63.7812317,1.60152493 62.9783578,2.37008798 61.9880938,2.37008798 C60.9973021,2.37008798 60.1944282,1.61894428 60.1944282,0.628680352 C60.1944282,0.528914956 60.2081525,0.389560117 60.2239883,0.389560117 L56.1362463,0.389560117 L56.1362463,4.93812317 C57.1919648,4.97982405 57.8517889,5.76 57.8517889,6.72387097 C57.8517889,7.68774194 57.1919648,8.46791789 56.1362463,8.50909091 L56.1362463,12.9156598 C57.1919648,12.9457478 57.8744868,13.7322581 57.8744868,14.7035191 C57.8744868,15.6753079 57.1919648,16.4612903 56.1362463,16.4913783 L56.1362463,20.8937243 C57.1919648,20.9116716 57.8966569,21.7045161 57.8966569,22.683695 C57.8966569,23.6628739 57.1919648,24.4551906 56.1362463,24.4736657 L56.1362463,28.871261 C57.1919648,28.8770674 57.918827,29.6767742 57.918827,30.6633431 C57.918827,31.6504399 57.1919648,32.4496188 56.1362463,32.4559531 L56.1362463,36.8509091 C56.1362463,36.8509091 56.2096188,36.8498534 56.2133138,36.8498534 C57.2035777,36.8498534 58.0391789,37.6527273 58.0391789,38.6435191 C58.0391789,39.633783 57.1872141,40.4366569 56.1969501,40.4366569 C56.1927273,40.4366569 56.1362463,40.4356012 56.1362463,40.4356012 L56.1362463,44.8331965 C56.1362463,44.8331965 56.223871,44.8300293 56.2354839,44.8300293 C57.2257478,44.8300293 58.0618768,45.6329032 58.0618768,46.6231672 C58.0618768,47.6139589 57.2093842,48.4168328 56.2191202,48.4168328 C56.2075073,48.4168328 56.1362463,48.4136657 56.1362463,48.4136657 L56.1362463,52.8154839 C56.1362463,52.814956 56.238651,52.8096774 56.257654,52.8096774 C57.2484457,52.8096774 58.0840469,53.6130792 58.0840469,54.6033431 C58.0840469,55.593607 57.2320821,56.3970088 56.2412903,56.3970088 C56.2222874,56.3970088 56.1362463,56.3917302 56.1362463,56.3912023 L56.1362463,60.7977713 C56.1362463,60.7967155 56.2534311,60.7898534 56.279824,60.7898534 C57.2706158,60.7898534 58.106217,61.5927273 58.106217,62.5829912 C58.106217,63.573783 57.2542522,64.3766569 56.2634604,64.3766569 C56.2370674,64.3766569 56.1362463,64.3697947 56.1362463,64.368739 L56.1362463,67.9555425 L60.202346,67.9555425 C60.2440469,66.899824 61.0242229,66.24 61.9880938,66.24 C62.9519648,66.24 63.7321408,66.899824 63.7733138,67.9555425 L68.1798827,67.9555425 C68.2099707,66.899824 68.9964809,66.2178299 69.9677419,66.2178299 C70.9395308,66.2178299 71.7255132,66.899824 71.7556012,67.9555425 L76.1579472,67.9555425 C76.1758944,66.899824 76.968739,66.1956598 77.9479179,66.1956598 C78.9270968,66.1956598 79.7199413,66.899824 79.7378886,67.9555425 L84.1354839,67.9555425 C84.1418182,66.899824 84.9409971,66.1729619 85.927566,66.1729619 C86.9146628,66.1729619 87.7138416,66.899824 87.720176,67.9555425 L92.1156598,67.9555425 C92.115132,67.9555425 92.1140762,67.7570674 92.1140762,67.7533724 C92.1140762,66.7631085 92.917478,65.8646921 93.9077419,65.8646921 C94.8980059,65.8646921 95.7008798,66.8106158 95.7008798,67.8014076 C95.7008798,67.8051026 95.699824,67.9555425 95.699824,67.9555425 L100.097419,67.9555425 C100.097419,67.9555425 100.094252,67.7428152 100.094252,67.7312023 C100.094252,66.7409384 100.897126,65.842522 101.88739,65.842522 C102.878182,65.842522 103.681056,66.7884457 103.681056,67.7787097 C103.681056,67.7903226 103.677889,67.9555425 103.677889,67.9555425 L108.079707,67.9555425 C108.079179,67.9555425 108.0739,67.7280352 108.0739,67.7090323 C108.0739,66.7182405 108.877302,65.8203519 109.867566,65.8203519 C110.85783,65.8203519 111.661232,66.7662757 111.661232,67.7565396 C111.661232,67.7755425 111.655953,67.9555425 111.655425,67.9555425 L116.061994,67.9555425 C116.061466,67.4276833 116.060938,67.6657478 116.059883,67.6282698 C116.059355,67.6478006 116.054076,67.6319648 116.054076,67.6520235 C116.054076,67.6715543 116.057771,67.4778299 116.059883,67.5760117 C116.091554,66.611085 116.877009,65.7717889 117.847742,65.7717889 C118.816364,65.7717889 119.600762,66.6242815 119.634545,67.5892082 C119.637185,67.4540762 119.64088,67.6704985 119.64088,67.649912 C119.64088,67.6287977 119.635601,67.676305 119.634545,67.6551906 C119.634018,67.6958358 119.63349,67.9555425 119.632962,67.9555425 L123.702229,67.9555425 L123.702229,64.368739 C122.64651,64.3270381 121.986686,63.5468622 121.986686,62.5829912 C121.986686,61.6196481 122.64651,60.8394721 123.702229,60.7977713 L123.702229,56.3912023 C122.64651,56.3611144 121.964516,55.5746041 121.964516,54.6033431 C121.964516,53.6320821 122.64651,52.8455718 123.702229,52.8154839 L123.702229,48.4136657 C122.64651,48.3951906 121.942346,47.602346 121.942346,46.6231672 C121.942346,45.6445161 122.64651,44.8516716 123.702229,44.8331965 L123.702229,40.4356012 C122.64651,40.4297947 121.920176,39.630088 121.920176,38.6435191 C121.920176,37.6569501 122.64651,36.8572434 123.702229,36.8509091 L123.702229,32.4559531 C123.702229,32.4559531 123.627801,32.4570088 123.624106,32.4570088 C122.633314,32.4570088 121.797185,31.6541349 121.797185,30.6633431 C121.797185,29.6730792 122.650205,28.8702053 123.640997,28.8702053 C123.644692,28.8702053 123.702229,28.871261 123.702229,28.871261 L123.702229,24.4736657 C123.702229,24.4736657 123.613021,24.4768328 123.601935,24.4768328 C122.611144,24.4768328 121.774487,23.6739589 121.774487,22.683695 C121.774487,21.6929032 122.628035,20.8900293 123.618827,20.8900293 C123.629912,20.8900293 123.702229,20.8931965 123.702229,20.8937243 L123.702229,16.4913783 C123.702229,16.4919062 123.598768,16.4971848 123.579765,16.4971848 C122.588974,16.4971848 121.752317,15.6943109 121.752317,14.7035191 C121.752317,13.7132551 122.605865,12.9103812 123.596129,12.9103812 C123.61566,12.9103812 123.702229,12.915132 123.702229,12.9156598 L123.702229,8.50909091 C123.702229,8.51067449 123.583988,8.5170088 123.557067,8.5170088 C122.566804,8.5170088 121.730147,7.7141349 121.730147,6.72387097 C121.730147,5.73307918 122.583695,4.93020528 123.573959,4.93020528"/>
      <path fill="#FFF" d="M8.86645161 96.5818768C11.0480938 96.5818768 12.3228739 95.4770674 12.3228739 93.3809384 12.3228739 91.3133138 11.0480938 90.2644575 8.86645161 90.2644575L5.0426393 90.2644575 5.0426393 96.5818768 8.86645161 96.5818768zM9.00844575 100.547683L5.0426393 100.547683 5.0426393 106.128211 0 106.128211 0 86.2991789 8.86645161 86.2991789C14.107566 86.2991789 17.1100293 88.7917302 17.1100293 93.2104399 17.1100293 96.2419355 15.8352493 98.4230499 13.5126686 99.584868L17.6764223 106.128211 11.9544282 106.128211 9.00844575 100.547683zM30.1708504 97.1767742C30.1708504 95.3070968 28.9810557 94.0893255 27.224868 94.0893255 25.5251613 94.0893255 24.363871 95.3356012 24.052434 97.1767742L30.1708504 97.1767742zM34.8735484 99.8107918L24.1374194 99.8107918C24.618827 101.623988 25.9221114 102.64434 27.7347801 102.64434 29.0660411 102.64434 30.3693255 102.105924 31.3891496 101.085572L33.9672141 103.607155C32.4089736 105.306862 30.1143695 106.298182 27.3098534 106.298182 22.3242229 106.298182 19.2082698 103.182229 19.2082698 98.5365396 19.2082698 93.8053372 22.4377126 90.689912 27.1683871 90.689912 32.5504399 90.689912 35.2134897 94.2307918 34.8735484 99.8107918zM46.2341349 100.944633L46.2341349 99.584868 43.1461584 99.584868C41.6734311 99.584868 40.9365396 100.094252 40.9365396 101.227566 40.9365396 102.332375 41.729912 103.040762 43.0896774 103.040762 44.6194135 103.040762 45.9226979 102.190909 46.2341349 100.944633zM51.0497947 96.1569501L51.0497947 106.128211 46.2626393 106.128211 46.2626393 104.372023C45.2707918 105.675308 43.6560704 106.355191 41.5884457 106.355191 38.3304985 106.355191 36.3473314 104.372023 36.3473314 101.567507 36.3473314 98.6780059 38.4154839 96.9782991 42.2113196 96.9497947L46.2341349 96.9497947 46.2341349 96.723871C46.2341349 95.2221114 45.2428152 94.3157771 43.2596481 94.3157771 41.984868 94.3157771 40.3136657 94.7692082 38.6989443 95.5900293L37.3106745 92.3611144C39.6902639 91.256305 41.8434018 90.6334311 44.3929619 90.6334311 48.5852199 90.6334311 51.0212903 92.7010557 51.0497947 96.1569501zM67.9909091 94.1173021L64.4785337 96.2419355C63.7701466 95.2506158 62.7218182 94.6557185 61.3905572 94.6557185 59.4929032 94.6557185 58.1896188 96.2134311 58.1896188 98.508563 58.1896188 100.859648 59.4929032 102.388856 61.3905572 102.388856 62.778827 102.388856 63.855132 101.822463 64.5070381 100.661173L68.0758944 102.757302C66.8296188 104.995425 64.365044 106.298182 61.1356012 106.298182 56.4334311 106.298182 53.2604692 103.182229 53.2604692 98.5365396 53.2604692 93.8338416 56.4614076 90.689912 61.1920821 90.689912 64.2230499 90.689912 66.6596481 91.9356598 67.9909091 94.1173021M80.3148387 105.306862C79.2105572 105.95824 77.7087977 106.355191 76.2355425 106.355191 73.2895601 106.355191 71.1649267 104.68346 71.1649267 101.511026L71.1649267 94.7692082 69.0402933 94.7692082 69.0402933 91.5677419 71.1649267 91.5677419 71.1649267 87.3184751 76.0375953 87.3184751 76.0375953 91.5392375 80.0319062 91.5392375 80.0319062 94.7692082 76.0375953 94.7692082 76.0375953 100.746158C76.0375953 101.935953 76.5475073 102.445865 77.4538416 102.417361 77.9637537 102.417361 78.6156598 102.218886 79.3520235 101.907449L80.3148387 105.306862"/>
      <polyline fill="#FFF" points="103.234 106.128 94.113 93.919 94.113 106.128 89.381 106.128 89.381 86.299 93.829 86.299 102.978 98.537 102.978 86.299 107.681 86.299 107.681 106.128 103.234 106.128"/>
      <path fill="#FFF" d="M120.317067 100.944633L120.317067 99.584868 117.229091 99.584868C115.756364 99.584868 115.02 100.094252 115.02 101.227566 115.02 102.332375 115.813372 103.040762 117.173138 103.040762 118.702346 103.040762 120.00563 102.190909 120.317067 100.944633zM125.132727 96.1569501L125.132727 106.128211 120.345572 106.128211 120.345572 104.372023C119.354252 105.675308 117.739531 106.355191 115.671378 106.355191 112.413431 106.355191 110.43132 104.372023 110.43132 101.567507 110.43132 98.6780059 112.498944 96.9782991 116.29478 96.9497947L120.317067 96.9497947 120.317067 96.723871C120.317067 95.2221114 119.325748 94.3157771 117.342581 94.3157771 116.067801 94.3157771 114.396598 94.7692082 112.782405 95.5900293L111.394135 92.3611144C113.773724 91.256305 115.926862 90.6334311 118.475894 90.6334311 122.668152 90.6334311 125.104223 92.7010557 125.132727 96.1569501zM138.475953 105.306862C137.371672 105.95824 135.87044 106.355191 134.397185 106.355191 131.451202 106.355191 129.326569 104.68346 129.326569 101.511026L129.326569 94.7692082 127.201935 94.7692082 127.201935 91.5677419 129.326569 91.5677419 129.326569 87.3184751 134.199238 87.3184751 134.199238 91.5392375 138.193021 91.5392375 138.193021 94.7692082 134.199238 94.7692082 134.199238 100.746158C134.199238 101.935953 134.70915 102.445865 135.615484 102.417361 136.124868 102.417361 136.776774 102.218886 137.513138 101.907449L138.475953 105.306862M140.942111 106.128211L145.81478 106.128211 145.81478 90.8593548 140.942111 90.8593548 140.942111 106.128211zM145.984223 86.4691496C145.984223 87.9983578 144.907918 89.0751906 143.406686 89.0751906 141.905455 89.0751906 140.828622 87.9983578 140.828622 86.4691496 140.828622 84.96739 141.905455 83.891085 143.406686 83.891085 144.907918 83.891085 145.984223 84.96739 145.984223 86.4691496z"/>
      <polyline fill="#FFF" points="153.408 106.128 147.656 90.859 152.699 90.859 155.985 101.652 159.299 90.859 164.172 90.859 158.421 106.128 153.408 106.128"/>
      <path fill="#FFF" d="M175.107801,97.1767742 C175.107801,95.3070968 173.918006,94.0893255 172.161818,94.0893255 C170.461584,94.0893255 169.300293,95.3356012 168.988856,97.1767742 L175.107801,97.1767742 Z M179.809971,99.8107918 L169.073842,99.8107918 C169.555249,101.623988 170.858534,102.64434 172.67173,102.64434 C174.002991,102.64434 175.305748,102.105924 176.3261,101.085572 L178.903109,103.607155 C177.345396,105.306862 175.05132,106.298182 172.246276,106.298182 C167.261173,106.298182 164.144692,103.182229 164.144692,98.5365396 C164.144692,93.8053372 167.374663,90.689912 172.104809,90.689912 C177.48739,90.689912 180.149912,94.2307918 179.809971,99.8107918 Z"/>
      <polyline fill="#D43538" points="35.681 127.132 31.281 121.243 31.281 127.132 29 127.132 29 117.569 31.145 117.569 35.558 123.47 35.558 117.569 37.825 117.569 37.825 127.132 35.681 127.132"/>
      <polyline fill="#D43538" points="45.174 119.481 45.174 121.38 49.738 121.38 49.738 123.293 45.174 123.293 45.174 125.219 50.379 125.219 50.379 127.132 42.742 127.132 42.742 117.569 50.23 117.569 50.23 119.481 45.174 119.481"/>
      <g transform="translate(53.842 117.185)">
        <mask id="newsletter-illustration-b" fill="#fff">
          <use xlink:href="#newsletter-illustration-a"/>
        </mask>
        <polyline fill="#D43538" points="9.365 9.947 7.589 3.334 5.785 9.947 3.272 9.947 .143 .384 2.739 .384 4.611 7.42 6.441 .384 8.818 .384 10.69 7.42 12.535 .384 15.021 .384 11.865 9.947 9.365 9.947" mask="url(#newsletter-illustration-b)"/>
        <path fill="#D43538" d="M26.3312023,1.33970674 L25.4158944,3.23894428 C24.405044,2.65143695 23.1344868,2.24181818 22.3558944,2.24181818 C21.7272141,2.24181818 21.303871,2.47407625 21.303871,2.93859238 C21.303871,4.59184751 26.358651,3.64909091 26.358651,7.1055132 C26.358651,9.01794721 24.6647507,10.0293255 22.5332551,10.0293255 C20.9348974,10.0293255 19.2953666,9.42756598 18.1615249,8.49906158 L19.1042815,6.62727273 C20.0876833,7.48768328 21.5635777,8.06199413 22.5607038,8.06199413 C23.3260997,8.06199413 23.8038123,7.77483871 23.8038123,7.22797654 C23.8038123,5.53407625 18.7490323,6.54545455 18.7490323,3.1571261 C18.7490323,1.39460411 20.2655718,0.274486804 22.5607038,0.274486804 C23.9405279,0.274486804 25.3478006,0.697829912 26.3312023,1.33970674" mask="url(#newsletter-illustration-b)"/>
      </g>
      <polyline fill="#D43538" points="91.019 125.096 91.019 127.132 84.53 127.132 84.53 117.569 86.962 117.569 86.962 125.096 91.019 125.096"/>
      <polyline fill="#D43538" points="97.617 119.481 97.617 121.38 102.18 121.38 102.18 123.293 97.617 123.293 97.617 125.219 102.822 125.219 102.822 127.132 95.185 127.132 95.185 117.569 102.672 117.569 102.672 119.481 97.617 119.481"/>
      <polyline fill="#D43538" points="111.824 119.522 111.824 127.132 109.392 127.132 109.392 119.522 106.537 119.522 106.537 117.555 114.707 117.555 114.707 119.522 111.824 119.522"/>
      <polyline fill="#D43538" points="123.176 119.522 123.176 127.132 120.745 127.132 120.745 119.522 117.889 119.522 117.889 117.555 126.059 117.555 126.059 119.522 123.176 119.522"/>
      <polyline fill="#D43538" points="132.533 119.481 132.533 121.38 137.097 121.38 137.097 123.293 132.533 123.293 132.533 125.219 137.739 125.219 137.739 127.132 130.101 127.132 130.101 117.569 137.588 117.569 137.588 119.481 132.533 119.481"/>
      <path fill="#D43538" d="M146.590205,122.527742 C147.642229,122.527742 148.256657,121.994604 148.256657,120.983754 C148.256657,119.986628 147.642229,119.480938 146.590205,119.480938 L144.745865,119.480938 L144.745865,122.527742 L146.590205,122.527742 Z M146.658299,124.440176 L144.745865,124.440176 L144.745865,127.13173 L142.314018,127.13173 L142.314018,117.568504 L146.590205,117.568504 C149.118123,117.568504 150.566041,118.77044 150.566041,120.902463 C150.566041,122.364106 149.951085,123.415601 148.830968,123.97566 L150.839472,127.13173 L148.079296,127.13173 L146.658299,124.440176 Z"/>
      <path fill="#FFFFFE" d="M112.791378,7.05536657 L67.0476246,7.05536657 C64.8221701,7.05536657 63.0179472,8.85958944 63.0179472,11.085044 L63.0179472,56.7971261 C63.0179472,59.0225806 64.8221701,60.8268035 67.0476246,60.8268035 L112.791378,60.8268035 C115.016833,60.8268035 116.821056,59.0225806 116.821056,56.7971261 L116.821056,11.085044 C116.821056,8.85958944 115.016833,7.05536657 112.791378,7.05536657 Z M112.791378,8.63894428 C114.140059,8.63894428 115.237478,9.73583578 115.237478,11.085044 L115.237478,56.7971261 C115.237478,58.1458065 114.140059,59.2432258 112.791378,59.2432258 L67.0476246,59.2432258 C65.6989443,59.2432258 64.6015249,58.1458065 64.6015249,56.7971261 L64.6015249,11.085044 C64.6015249,9.73583578 65.6989443,8.63894428 67.0476246,8.63894428 L112.791378,8.63894428 Z"/>
      <path fill="#FFFFFE" d="M79.5283284,39.701349 C78.4251026,39.2568915 77.328739,38.8557185 76.2682698,38.3832845 C75.0093255,37.8580645 73.8870968,37.0514956 72.9876246,36.026393 C71.6341935,34.6492082 71.6537243,32.4353666 73.0309091,31.0824633 C73.0356598,31.0777126 73.0398827,31.0734897 73.0446334,31.068739 C74.3468622,29.8029326 75.9378299,28.8739003 77.6797654,28.3608211 C78.2313783,28.1670968 78.7972434,28.0024047 79.3488563,27.8308504 C79.1218768,26.8859824 78.9492669,25.9295015 78.8331378,24.9651026 C78.7096188,23.7536657 78.731261,22.5316716 78.8975367,21.3255132 C79.3847507,18.6107331 81.5194135,17.5217595 84.2278592,18.4602933 C86.1851613,19.2314956 87.9645748,20.3943695 89.4573607,21.8771261 L89.7154839,22.1067449 C90.1520235,21.7340762 90.5679765,21.389912 90.997654,21.0035191 C92.2127859,19.9451613 93.6248094,19.1370088 95.152434,18.6249853 C96.0281525,18.3230499 96.9746041,18.2929619 97.8677419,18.5389443 C99.1208798,18.9290323 100.083167,19.9398827 100.410968,21.2109677 C100.889736,22.9117302 100.956246,24.7022287 100.604692,26.433607 C100.518651,27.0068622 100.396716,27.5727273 100.28217,28.181349 C101.077126,28.4753666 101.886862,28.7477419 102.674956,29.0697361 C104.09912,29.5975953 105.402405,30.4068035 106.507742,31.4482698 C108.269736,33.2107918 108.30563,35.3026979 106.593255,36.9934311 C105.215543,38.2254545 103.5739,39.1249267 101.793431,39.6226979 C101.363754,39.7657478 100.934076,39.8945455 100.497009,40.023871 C100.669091,40.9407625 100.869677,41.8291496 101.005337,42.7243988 C101.232317,43.9775367 101.232317,45.2612903 101.005337,46.5144282 C100.446862,49.214956 98.3765982,50.3540762 95.6829326,49.4440469 C93.8306745,48.735132 92.1399413,47.6604106 90.7110264,46.2848094 L90.1594135,45.7975953 C89.5824633,46.327566 88.9748974,46.8226979 88.3398827,47.2808798 C87.3021114,47.9465103 86.2305572,48.558827 85.1304985,49.1146628 C84.6496188,49.3263343 84.1354839,49.4524927 83.6113196,49.4873314 C81.8815249,49.7560117 80.2029326,48.7625806 79.6069795,47.1161877 C79.0490323,45.6133724 78.888563,43.9923167 79.1414076,42.4092669 C79.2417009,41.5134897 79.4132551,40.6324927 79.5568328,39.7514956 L79.5283284,39.701349 Z M84.8079765,30.9684457 C84.3709091,31.8066862 83.9269795,32.6375367 83.5184164,33.4900293 C83.4297361,33.6911437 83.4297361,33.9197067 83.5184164,34.1202933 C84.502346,35.8110264 85.50739,37.4827566 86.5346041,39.1354839 C86.6591789,39.3070381 86.8529032,39.4141935 87.0645748,39.4289736 C89.0229326,39.4817595 90.9807625,39.5129032 92.9391202,39.5224047 C93.161349,39.5065689 93.3656305,39.3941349 93.4975953,39.2141349 C94.4530205,37.5904399 95.4084457,35.9546041 96.3633431,34.3066276 C96.4594135,34.102346 96.4594135,33.866393 96.3633431,33.6621114 C95.3794135,31.9713783 94.3743695,30.2996481 93.3471554,28.6474487 C93.2225806,28.4758944 93.0288563,28.3682111 92.8171848,28.3534311 C90.8593548,28.3059238 88.9009971,28.2768915 86.9426393,28.26739 C86.7251613,28.2916716 86.5277419,28.406217 86.3984164,28.5830499 C85.8610557,29.3637537 85.3669795,30.1660997 84.8581232,30.9610557 L84.8079765,30.9684457 Z M91.1839883,44.7160117 C91.7714956,45.2106158 92.3157185,45.7046921 92.8889736,46.1486217 C93.9373021,47.0343695 95.1566569,47.6952493 96.4710264,48.090088 C98.0039296,48.491261 99.0211144,47.9539003 99.4222874,46.4853959 C99.9881525,44.422522 99.5083284,42.3876246 99.0068622,40.3817595 C97.6243988,40.5680938 96.3063343,40.7760704 94.9734897,40.904868 C94.4546041,40.8906158 93.971085,41.1672141 93.719824,41.621173 C93.5260997,41.9310264 93.3033431,42.221349 93.0536657,42.4879179 C92.4519062,43.2042229 91.8501466,43.9210557 91.2051026,44.6943695 L91.1839883,44.7160117 Z M99.9168915,29.6429912 C99.4581818,30.8465103 99.0997654,32.028915 98.5697947,33.1247507 C98.2557185,33.7476246 98.28,34.4871554 98.6341935,35.0878592 C99.1646921,36.1979472 99.5801173,37.3660997 100.067331,38.583871 C101.03437,38.2328446 102.029912,37.9530792 102.932551,37.5165396 C103.796129,37.1201173 104.605337,36.6144282 105.339589,36.0121408 C106.679296,34.8724927 106.63654,33.5760704 105.339589,32.3509091 C103.806686,30.9182991 101.893724,30.273783 99.9311437,29.636129 L99.9168915,29.6429912 Z M88.9775367,44.6875073 C87.9672141,43.4407038 87.0070381,42.2445748 86.04,41.0553079 C85.9565982,40.9513196 85.8404692,40.8784751 85.7106158,40.8473314 C84.1777126,40.5965982 82.6516716,40.3675073 81.0612317,40.1310264 C80.5808798,41.8375953 80.4446921,43.6228152 80.6600587,45.3821701 C81.0395894,47.7464516 82.4151906,48.5271554 84.6501466,47.6678006 C86.257478,46.9625806 87.7164809,45.9585924 88.9485044,44.7091496 L88.9775367,44.6875073 Z M98.7846334,27.708915 C98.8564223,27.3721408 98.9498534,26.99261 99.0068622,26.6626979 C99.3943109,25.0305572 99.3943109,23.3303226 99.0068622,21.6981818 C98.5555425,20.1795308 97.5309677,19.5492669 95.9980645,19.9287977 C93.9061584,20.4302639 92.3658651,21.7699707 90.8614663,23.1239296 C91.878651,24.3918475 92.8604692,25.6096188 93.8486217,26.8279179 C93.9330792,26.9076246 94.0412903,26.9577713 94.1568915,26.9709677 L98.7777713,27.6872727 L98.7846334,27.708915 Z M79.728915,29.2418182 C78.6256891,29.6720235 77.4575367,30.0584164 76.3617009,30.5746628 C75.6559531,30.9109091 75.0040469,31.350088 74.4270968,31.8784751 C73.1665689,33.0318475 73.2167155,34.2707331 74.5062757,35.46 C76.0465689,36.8931378 77.9806452,37.5592962 79.9078592,38.1826979 C79.946393,38.1515543 79.980176,38.1156598 80.0081525,38.0750147 C80.5333724,36.6946628 81.0538416,35.3148387 81.5695601,33.9344868 C81.6080938,33.8278592 81.6080938,33.7112023 81.5695601,33.6045748 C80.9751906,32.1719648 80.3734311,30.7393548 79.7141349,29.220176 L79.728915,29.2418182 Z M80.8532551,27.4507918 C81.8994721,27.2428152 82.9567742,27.0944868 84.0198827,27.0068622 C85.0719062,27.0538416 86.0648094,26.520176 86.6058651,25.6170088 C87.239824,24.7270381 87.9286804,23.8771848 88.6692669,23.073783 C87.795132,22.357478 86.9568915,21.641173 86.04739,21.0177713 C85.1310264,20.3104399 84.0568328,19.8364223 82.9166569,19.6353079 C81.9195308,19.3824633 80.898651,19.9509677 80.5882698,20.9317302 C79.7716716,23.0806452 80.3591789,25.2728446 80.846393,27.4507918 L80.8532551,27.4507918 Z M87.888563,41.0621701 L90.0807625,43.620176 L92.1726686,41.1339589 L87.8743109,41.0621701 L87.888563,41.0621701 Z M95.1096774,28.5756598 L97.316129,32.2506158 L98.4124927,29.1848094 L95.1022874,28.5682698 L95.1096774,28.5756598 Z M97.3736657,35.8326686 L95.3102639,39.4147214 L98.5481525,38.8990029 L97.3662757,35.8469208 L97.3736657,35.8326686 Z M82.5297361,35.5534311 L81.4339003,38.6197654 L84.7361877,39.2357771 L82.5297361,35.5534311 Z M91.9504399,26.7777713 L89.7508504,24.2129032 L87.6663343,26.6843402 L91.5418768,26.7777713 L91.9504399,26.7777713 Z M81.2834604,28.9266862 L82.4653372,31.9856305 L83.489912,30.1946041 L84.5429912,28.4252199 L81.3045748,28.9266862 L81.2834604,28.9266862 Z"/>
      <path fill="#FFFFFE" d="M92.7015836,35.2699707 C91.8131965,36.8065689 89.8474487,37.3323167 88.3108504,36.4439296 C86.7742522,35.5560704 86.2485044,33.5903226 87.1368915,32.0537243 C88.0194721,30.5260997 89.9693842,29.996129 91.5043988,30.8665689 C93.0367742,31.7217009 93.5857478,33.6573607 92.7306158,35.1902639 C92.7211144,35.2076833 92.711085,35.2245748 92.7015836,35.2414663 L92.7015836,35.2699707"/>
    </g>
    <path stroke="#E73536" stroke-linecap="round" stroke-linejoin="round" stroke-width="3" d="M51 275L411 275M51 500.5L211 500.5M250 500.5L410 500.5M81 301L381 301M51 526.5L184 526.5M250 526.5L383 526.5"/>
    <rect width="161" height="100" x="51" y="367" stroke="#E73536" stroke-linecap="round" stroke-linejoin="round" stroke-width="3" rx="7"/>
    <rect width="161" height="100" x="250" y="367" stroke="#E73536" stroke-linecap="round" stroke-linejoin="round" stroke-width="3" rx="7"/>
  </g>
</svg>
